<svg width="77" height="50" viewBox="0 0 77 50" fill="none" xmlns="http://www.w3.org/2000/svg">
<path d="M52.6156 25.1054L71.9766 8.28454V41.7343L52.6156 25.1054ZM27.6675 27.954L34.4664 33.8558C35.5334 34.7624 36.9247 35.31 38.445 35.31H38.4985H38.5394C40.0629 35.31 41.4541 34.7592 42.5338 33.8464L42.5243 33.8527L49.3232 27.9509L69.9905 45.7003H7.00967L27.6675 27.954ZM6.98134 4.29651H70.0282L39.745 30.598C39.4045 30.8674 38.983 31.0138 38.5489 31.0135H38.5048H38.4639C38.0282 31.0141 37.6053 30.8665 37.2646 30.5949L37.2678 30.598L6.98134 4.29651ZM5.02667 8.2814L24.3846 25.1023L5.02667 41.7217V8.2814ZM73.0153 0.598049C72.2599 0.220334 71.3723 0 70.4311 0H6.5816C5.66929 0.000217926 4.76953 0.212498 3.95333 0.620082L3.98795 0.604343C3.01085 1.08628 2.18798 1.83185 1.6123 2.75683C1.03662 3.68181 0.731068 4.74935 0.730164 5.83884L0.730164 44.1517C0.73183 45.7023 1.34852 47.1888 2.44493 48.2852C3.54133 49.3816 5.0279 49.9983 6.57845 50H70.4217C71.9723 49.9983 73.4588 49.3816 74.5552 48.2852C75.6516 47.1888 76.2683 45.7023 76.27 44.1517V5.83884C76.27 3.55052 74.9511 1.56752 73.0311 0.613787L72.9965 0.598049H73.0153Z" fill="#44C6E9"/>
</svg>
