<svg width="43" height="50" viewBox="0 0 43 50" fill="none" xmlns="http://www.w3.org/2000/svg">
<path d="M9.50695 22.9614L9.51781 22.9801L19.1186 39.5771L19.1399 39.6049L19.14 39.605C19.5029 40.0789 19.8341 40.4216 20.2037 40.6659L20.204 40.6661C20.5636 40.9041 20.9903 41.0318 21.3833 40.9925C22.2028 40.9104 22.7352 40.3432 23.3537 39.5051L23.3593 39.4975L23.3593 39.4976L23.3735 39.4791L33.9686 21.446L33.9688 21.4456L33.9744 21.4349L33.9745 21.4349C34.2047 21.0189 34.378 20.5897 34.529 20.1579L34.5333 20.1458L34.5381 20.134C35.2298 18.44 35.5857 16.6278 35.586 14.798L9.50695 22.9614ZM9.50695 22.9614L9.49451 22.9436M9.50695 22.9614L9.49451 22.9436M9.49451 22.9436C7.87311 20.6292 6.914 17.8166 6.914 14.798C6.914 6.94395 13.3758 0.5 21.251 0.5M9.49451 22.9436L21.251 0.5M21.251 0.5C29.126 0.5 35.5859 6.94381 35.586 14.7979L21.251 0.5ZM37.1745 36.8649L30.4318 37.9672L31.7189 35.5471C33.8035 35.8692 35.645 36.3066 37.1745 36.8649ZM0.5 41.6353C0.500243 40.4246 1.0884 39.3851 2.23819 38.4874C3.36355 37.6088 5.00297 36.889 7.06098 36.3284L14.1174 40.6337L0.701028 42.8265C0.569478 42.4439 0.501292 42.0415 0.5 41.6353ZM26.8356 49.2368L22.0418 43.7832L41.8271 40.5584C41.94 40.8997 42 41.2578 42 41.636C42 43.5356 40.5416 45.2331 37.7673 46.587C35.0667 47.9049 31.2589 48.8196 26.8356 49.2368ZM21.5402 49.4984C21.4439 49.4994 21.3472 49.5 21.25 49.5C14.5051 49.5 8.56966 48.451 4.78316 46.6142L17.3123 44.5663L21.5402 49.4984ZM28.046 14.7975C28.046 10.9996 25.0613 8.0225 21.251 8.0225C17.4408 8.0225 14.454 10.9999 14.454 14.7975C14.454 18.5962 17.4404 21.5725 21.251 21.5725C25.0613 21.5725 28.046 18.5965 28.046 14.7975Z" fill="#44C6E9" stroke="#44C6E9"/>
</svg>
