<svg width="79" height="100" viewBox="0 0 79 100" fill="none" xmlns="http://www.w3.org/2000/svg">
<g clip-path="url(#clip0_12_183)">
<path d="M21.05 51.731C21.5192 49.163 23.7568 47.2972 26.3674 47.2972H52.0234C54.6268 47.2972 56.8582 49.1578 57.3262 51.7188C57.7935 54.2763 57.7626 56.9771 58.7702 59.3736C60.0524 62.4234 62.809 64.4277 65.5353 66.1634L12.6742 66.2478C15.3681 64.5328 18.1591 62.1155 19.513 59.1691C20.5492 56.9138 20.5741 54.3352 21.0203 51.8937L21.05 51.731Z" fill="url(#paint0_linear_12_183)"/>
<path d="M21.05 51.731C21.5192 49.163 23.7568 47.2972 26.3674 47.2972H52.0234C54.6268 47.2972 56.8582 49.1578 57.3262 51.7188C57.7935 54.2763 57.7626 56.9771 58.7702 59.3736C60.0524 62.4234 62.809 64.4277 65.5353 66.1634L12.6742 66.2478C15.3681 64.5328 18.1591 62.1155 19.513 59.1691C20.5492 56.9138 20.5741 54.3352 21.0203 51.8937L21.05 51.731Z" fill="url(#paint1_linear_12_183)" fill-opacity="0.4"/>
<path d="M21.05 51.731C21.5192 49.163 23.7568 47.2972 26.3674 47.2972H52.0234C54.6268 47.2972 56.8582 49.1578 57.3262 51.7188C57.7935 54.2763 57.7626 56.9771 58.7702 59.3736C60.0524 62.4234 62.809 64.4277 65.5353 66.1634L12.6742 66.2478C15.3681 64.5328 18.1591 62.1155 19.513 59.1691C20.5492 56.9138 20.5741 54.3352 21.0203 51.8937L21.05 51.731Z" fill="url(#paint2_linear_12_183)" fill-opacity="0.05"/>
<path d="M67.3815 70.7288C67.9382 68.9873 67.2111 67.0992 65.6618 66.2206C65.4573 66.1047 65.232 66.0322 65.0041 65.9747L45.1416 60.9617C41.2346 59.9757 37.1439 59.9756 33.2369 60.9617L13.3743 65.9745C13.1464 66.032 12.9211 66.1044 12.7166 66.2204C11.1673 67.099 10.4401 68.9871 10.9968 70.7286C12.7787 76.3025 13.6218 80.1364 15.0104 86.7324L16.643 94.4874C17.4628 97.7277 20.358 99.9962 23.677 100L23.6854 100L23.6937 100C27.2585 99.9959 30.2946 97.3878 30.8607 93.8418L34.2031 73.1082C34.5968 70.6422 36.7096 68.7305 39.1892 68.7305C41.6689 68.7305 43.7817 70.6422 44.1754 73.1082L47.5178 93.8418C48.0838 97.3877 51.1199 99.9959 54.6847 100L54.693 100L54.7014 100C58.0204 99.9962 60.9156 97.7277 61.7354 94.4874L63.368 86.7324C64.7566 80.1365 65.5997 76.3026 67.3815 70.7288Z" fill="url(#paint3_linear_12_183)"/>
<path d="M67.3815 70.7288C67.9382 68.9873 67.2111 67.0992 65.6618 66.2206C65.4573 66.1047 65.232 66.0322 65.0041 65.9747L45.1416 60.9617C41.2346 59.9757 37.1439 59.9756 33.2369 60.9617L13.3743 65.9745C13.1464 66.032 12.9211 66.1044 12.7166 66.2204C11.1673 67.099 10.4401 68.9871 10.9968 70.7286C12.7787 76.3025 13.6218 80.1364 15.0104 86.7324L16.643 94.4874C17.4628 97.7277 20.358 99.9962 23.677 100L23.6854 100L23.6937 100C27.2585 99.9959 30.2946 97.3878 30.8607 93.8418L34.2031 73.1082C34.5968 70.6422 36.7096 68.7305 39.1892 68.7305C41.6689 68.7305 43.7817 70.6422 44.1754 73.1082L47.5178 93.8418C48.0838 97.3877 51.1199 99.9959 54.6847 100L54.693 100L54.7014 100C58.0204 99.9962 60.9156 97.7277 61.7354 94.4874L63.368 86.7324C64.7566 80.1365 65.5997 76.3026 67.3815 70.7288Z" fill="url(#paint4_radial_12_183)" fill-opacity="0.2"/>
<path d="M28.5951 1.7275C34.7486 4.4146 43.6296 4.41462 49.7832 1.72752C52.3665 0.599427 55.1081 0.000162015 57.8665 0H57.8688C60.4482 0.000151501 63.0423 0.524177 65.5355 1.62954C76.4271 6.45831 81.311 20.5714 76.5668 33.3004L76.5697 33.3016C76.032 34.4947 75.4781 35.6931 74.937 36.8964C74.1418 38.6651 72.2066 39.5798 70.4218 39.0302C70.2243 38.9694 70.0281 38.9024 69.8269 38.8551L45.3741 33.1068C41.3063 32.1505 37.0721 32.1505 33.0043 33.1067L8.55093 38.8551C8.34972 38.9024 8.15349 38.9694 7.95595 39.0302C6.17118 39.5798 4.23601 38.665 3.44101 36.8963C2.90012 35.693 2.34634 34.4947 1.80864 33.3016L1.81157 33.3004C-2.93266 20.5714 1.95126 6.45831 12.8429 1.62954C18.003 -0.658202 23.5954 -0.455741 28.5951 1.7275Z" fill="url(#paint5_linear_12_183)"/>
</g>
<defs>
<linearGradient id="paint0_linear_12_183" x1="39.1892" y1="45.5675" x2="39.1892" y2="65.6756" gradientUnits="userSpaceOnUse">
<stop stop-color="#AAC8E3"/>
<stop offset="1" stop-color="#C8DBED"/>
</linearGradient>
<linearGradient id="paint1_linear_12_183" x1="16.5701" y1="53.7545" x2="23.2947" y2="53.7545" gradientUnits="userSpaceOnUse">
<stop stop-color="#F1F7FA"/>
<stop offset="1" stop-color="#F0F7FA" stop-opacity="0"/>
</linearGradient>
<linearGradient id="paint2_linear_12_183" x1="39.1892" y1="45.5675" x2="39.1892" y2="51.4054" gradientUnits="userSpaceOnUse">
<stop stop-color="#065099"/>
<stop offset="1" stop-color="#065099" stop-opacity="0"/>
</linearGradient>
<linearGradient id="paint3_linear_12_183" x1="16.302" y1="43.7149" x2="39.6222" y2="99.8199" gradientUnits="userSpaceOnUse">
<stop stop-color="#E8F2F8"/>
<stop offset="1" stop-color="#CDDFF2"/>
</linearGradient>
<radialGradient id="paint4_radial_12_183" cx="0" cy="0" r="1" gradientUnits="userSpaceOnUse" gradientTransform="translate(32.3847 53.7211) rotate(71.222) scale(21.1375 26.1699)">
<stop stop-color="white"/>
<stop offset="1" stop-color="#EDF5F8" stop-opacity="0"/>
</radialGradient>
<linearGradient id="paint5_linear_12_183" x1="13.471" y1="6.29359" x2="69.5441" y2="43.8766" gradientUnits="userSpaceOnUse">
<stop stop-color="#F0F6F9"/>
<stop offset="1" stop-color="#CDDFF2"/>
</linearGradient>
<clipPath id="clip0_12_183">
<rect width="78.3784" height="100" fill="white"/>
</clipPath>
</defs>
</svg>
