<svg width="91" height="100" viewBox="0 0 91 100" fill="none" xmlns="http://www.w3.org/2000/svg">
<g clip-path="url(#clip0_12_187)">
<path d="M21.7778 33.3334H71.7777L69.8943 50.2844C69.3493 55.1889 71.7129 59.9611 75.9444 62.5H17.6111C21.8426 59.9611 24.2061 55.1889 23.6612 50.2844L21.7778 33.3334Z" fill="url(#paint0_linear_12_187)"/>
<path d="M21.7778 33.3334H71.7777L69.8943 50.2844C69.3493 55.1889 71.7129 59.9611 75.9444 62.5H17.6111C21.8426 59.9611 24.2061 55.1889 23.6612 50.2844L21.7778 33.3334Z" fill="url(#paint1_linear_12_187)" fill-opacity="0.4"/>
<path d="M21.7778 33.3334H71.7777L69.8943 50.2844C69.3493 55.1889 71.7129 59.9611 75.9444 62.5H17.6111C21.8426 59.9611 24.2061 55.1889 23.6612 50.2844L21.7778 33.3334Z" fill="url(#paint2_linear_12_187)" fill-opacity="0.05"/>
<path d="M21.7778 33.3334H71.7777L69.8943 50.2844C69.3493 55.1889 71.7129 59.9611 75.9444 62.5H17.6111C21.8426 59.9611 24.2061 55.1889 23.6612 50.2844L21.7778 33.3334Z" fill="url(#paint3_linear_12_187)" fill-opacity="0.2"/>
<path d="M21.7778 33.3334H71.7777L69.8943 50.2844C69.3493 55.1889 71.7129 59.9611 75.9444 62.5H17.6111C21.8426 59.9611 24.2061 55.1889 23.6612 50.2844L21.7778 33.3334Z" fill="url(#paint4_linear_12_187)" fill-opacity="0.3"/>
<path d="M78.4288 67.4967C79.0947 65.4362 78.1242 63.1907 76.1443 62.3137L56.9032 53.7906C50.4553 50.9344 43.101 50.9344 36.653 53.7905L17.4119 62.3135C15.432 63.1905 14.4614 65.436 15.1274 67.4965C17.1278 73.6859 18.0743 77.9431 19.6333 85.2675L21.4662 93.8787C22.3865 97.4768 25.6369 99.9958 29.3631 100C29.3662 100 29.3693 100 29.3724 100C29.3756 100 29.3787 100 29.3818 100C33.3838 99.9955 36.7924 97.0993 37.4279 93.1618L41.1804 70.1389C41.6223 67.4006 43.9943 65.2778 46.7782 65.2778C49.562 65.2778 51.934 67.4006 52.3759 70.1389L56.1283 93.1618C56.7638 97.0993 60.1724 99.9955 64.1744 100C64.1776 100 64.1807 100 64.1838 100C64.1869 100 64.1901 100 64.1932 100C67.9193 99.9958 71.1697 97.4768 72.0901 93.8787L73.9229 85.2675C75.4819 77.9432 76.4284 73.686 78.4288 67.4967Z" fill="url(#paint5_linear_12_187)"/>
<path d="M78.4288 67.4967C79.0947 65.4362 78.1242 63.1907 76.1443 62.3137L56.9032 53.7906C50.4553 50.9344 43.101 50.9344 36.653 53.7905L17.4119 62.3135C15.432 63.1905 14.4614 65.436 15.1274 67.4965C17.1278 73.6859 18.0743 77.9431 19.6333 85.2675L21.4662 93.8787C22.3865 97.4768 25.6369 99.9958 29.3631 100C29.3662 100 29.3693 100 29.3724 100C29.3756 100 29.3787 100 29.3818 100C33.3838 99.9955 36.7924 97.0993 37.4279 93.1618L41.1804 70.1389C41.6223 67.4006 43.9943 65.2778 46.7782 65.2778C49.562 65.2778 51.934 67.4006 52.3759 70.1389L56.1283 93.1618C56.7638 97.0993 60.1724 99.9955 64.1744 100C64.1776 100 64.1807 100 64.1838 100C64.1869 100 64.1901 100 64.1932 100C67.9193 99.9958 71.1697 97.4768 72.0901 93.8787L73.9229 85.2675C75.4819 77.9432 76.4284 73.686 78.4288 67.4967Z" fill="url(#paint6_radial_12_187)" fill-opacity="0.2"/>
<path d="M34.7633 10.2395C41.742 13.2045 51.814 13.2045 58.7927 10.2395C61.7225 8.99479 64.8317 8.33355 67.9601 8.33337H67.9626C70.8879 8.33354 73.8299 8.91176 76.6574 10.1314C89.0096 15.4596 94.5485 31.0321 89.168 45.0775L89.1713 45.0789C88.5615 46.3954 87.9333 47.7176 87.3197 49.0454C86.3683 51.1042 83.978 52.1144 81.867 51.2851L56.9348 41.4903C50.4063 38.9255 43.1492 38.9255 36.6208 41.4903L11.6885 51.2851C9.57758 52.1144 7.18729 51.1042 6.23612 49.0453C5.62271 47.7175 4.99467 46.3953 4.38486 45.0789L4.38818 45.0775C-0.992248 31.0321 4.5466 15.4596 16.8988 10.1314C22.7509 7.6071 29.0932 7.8305 34.7633 10.2395Z" fill="url(#paint7_linear_12_187)"/>
<g filter="url(#filter0_f_12_187)">
<path d="M15.9913 10.732L15.2009 6.96076C15.0293 6.14195 14.3073 5.55554 13.4707 5.55554C12.6106 5.55554 11.8753 6.17451 11.7287 7.02198L11.1282 10.4927C10.6342 13.3474 8.43265 15.6029 5.59064 16.1658L0.890543 17.0967C0.114635 17.2504 -0.444452 17.931 -0.444452 18.722C-0.444452 19.5378 0.14934 20.2322 0.955221 20.3588L5.31434 21.0439C8.29554 21.5124 10.6409 23.8387 11.1337 26.816L11.7396 30.4773C11.8797 31.3237 12.6116 31.9444 13.4696 31.9444C14.3051 31.9444 15.0246 31.3549 15.1888 30.5356L15.981 26.5842C16.5545 23.7236 18.842 21.5187 21.7217 21.0507L25.9339 20.3663C26.7406 20.2352 27.3333 19.5384 27.3333 18.7211C27.3333 17.9295 26.7765 17.2471 26.001 17.0882L21.4381 16.1538C18.704 15.5939 16.5638 13.4635 15.9913 10.732Z" fill="url(#paint8_linear_12_187)"/>
</g>
<path d="M14.8855 11.4288L14.2251 6.2335C14.1758 5.84599 13.8461 5.55554 13.4555 5.55554C13.0555 5.55554 12.721 5.85965 12.6832 6.25785L12.1922 11.4171C11.9033 14.4531 9.53511 16.8759 6.50651 17.2339L0.232765 17.9755C-0.153465 18.0211 -0.444452 18.3485 -0.444452 18.7375C-0.444452 19.1369 -0.137976 19.4696 0.260141 19.5022L6.17754 19.9873C9.36867 20.2489 11.91 22.7663 12.2018 25.9548L12.6857 31.2423C12.7221 31.64 13.0557 31.9444 13.455 31.9444C13.8454 31.9444 14.1745 31.6532 14.2219 31.2656L14.8722 25.9466C15.2644 22.7384 17.8529 20.245 21.0736 19.973L26.6285 19.5039C27.027 19.4703 27.3333 19.137 27.3333 18.7371C27.3333 18.348 27.0429 18.0202 26.6567 17.9732L20.7404 17.2528C17.6855 16.8809 15.2736 14.4817 14.8855 11.4288Z" fill="url(#paint9_linear_12_187)"/>
</g>
<defs>
<filter id="filter0_f_12_187" x="-4.44446" y="1.55554" width="35.7778" height="34.3889" filterUnits="userSpaceOnUse" color-interpolation-filters="sRGB">
<feFlood flood-opacity="0" result="BackgroundImageFix"/>
<feBlend mode="normal" in="SourceGraphic" in2="BackgroundImageFix" result="shape"/>
<feGaussianBlur stdDeviation="2" result="effect1_foregroundBlur_12_187"/>
</filter>
<linearGradient id="paint0_linear_12_187" x1="46.7777" y1="39.5834" x2="46.7777" y2="61.1111" gradientUnits="userSpaceOnUse">
<stop stop-color="#AAC8E3"/>
<stop offset="1" stop-color="#C8DBED"/>
</linearGradient>
<linearGradient id="paint1_linear_12_187" x1="21.0833" y1="48.3484" x2="28.7222" y2="48.3484" gradientUnits="userSpaceOnUse">
<stop stop-color="#F1F7FA"/>
<stop offset="1" stop-color="#F0F7FA" stop-opacity="0"/>
</linearGradient>
<linearGradient id="paint2_linear_12_187" x1="46.7777" y1="39.5834" x2="46.7777" y2="45.8334" gradientUnits="userSpaceOnUse">
<stop stop-color="#065099"/>
<stop offset="1" stop-color="#065099" stop-opacity="0"/>
</linearGradient>
<linearGradient id="paint3_linear_12_187" x1="46.7777" y1="33.3334" x2="46.7777" y2="48.6111" gradientUnits="userSpaceOnUse">
<stop stop-color="#23578B"/>
<stop offset="1" stop-color="#23578B" stop-opacity="0"/>
</linearGradient>
<linearGradient id="paint4_linear_12_187" x1="46.7777" y1="38.1945" x2="46.7777" y2="54.1667" gradientUnits="userSpaceOnUse">
<stop stop-color="#E8C200"/>
<stop offset="1" stop-color="#FFE457" stop-opacity="0"/>
</linearGradient>
<linearGradient id="paint5_linear_12_187" x1="21.0833" y1="37.5" x2="46.7781" y2="99.9999" gradientUnits="userSpaceOnUse">
<stop stop-color="#E8F2F8"/>
<stop offset="1" stop-color="#CDDFF2"/>
</linearGradient>
<radialGradient id="paint6_radial_12_187" cx="0" cy="0" r="1" gradientUnits="userSpaceOnUse" gradientTransform="translate(39.1389 48.6111) rotate(71.0296) scale(23.4985 29.3464)">
<stop stop-color="white"/>
<stop offset="1" stop-color="#EDF5F8" stop-opacity="0"/>
</radialGradient>
<linearGradient id="paint7_linear_12_187" x1="17.6111" y1="15.2778" x2="101.243" y2="66.6891" gradientUnits="userSpaceOnUse">
<stop stop-color="#F9EE93"/>
<stop offset="1" stop-color="#E4BB29"/>
</linearGradient>
<linearGradient id="paint8_linear_12_187" x1="13.4444" y1="5.55554" x2="13.4444" y2="31.9444" gradientUnits="userSpaceOnUse">
<stop stop-color="white"/>
<stop offset="1" stop-color="white"/>
</linearGradient>
<linearGradient id="paint9_linear_12_187" x1="13.4444" y1="5.55554" x2="13.4444" y2="31.9444" gradientUnits="userSpaceOnUse">
<stop stop-color="white"/>
<stop offset="1" stop-color="white"/>
</linearGradient>
<clipPath id="clip0_12_187">
<rect width="91" height="100" fill="white"/>
</clipPath>
</defs>
</svg>
