<svg width="91" height="100" viewBox="0 0 91 100" fill="none" xmlns="http://www.w3.org/2000/svg">
<path fill-rule="evenodd" clip-rule="evenodd" d="M57.5885 1.96063C50.4702 5.01033 40.1967 5.01031 33.0785 1.96061C27.295 -0.517239 20.8258 -0.74702 14.8566 1.84943C2.25989 7.32873 -3.38999 23.341 2.09262 37.7855C2.09383 37.7887 2.09378 37.7922 2.09245 37.7954L3.80338 41.5157C9.58691 54.0916 13.9463 67.2747 16.8004 80.8193L19.5154 93.7038C20.4549 97.4078 23.7751 100 27.5798 100C31.666 100 35.1477 97.0196 35.7964 92.9664L39.6239 69.0518C40.0747 66.2352 42.4941 64.1641 45.3336 64.1641C48.1731 64.1641 50.5926 66.2353 51.0434 69.0518L54.8708 92.9664C55.5195 97.0196 59.0012 100 63.0874 100C66.892 100 70.2122 97.4078 71.1518 93.7038L73.8668 80.8193C76.7208 67.2747 81.0803 54.0916 86.8638 41.5157L88.5747 37.7954C88.5734 37.7922 88.5733 37.7887 88.5745 37.7855C94.0571 23.341 88.4073 7.32873 75.8105 1.84943C69.8413 -0.747047 63.3721 -0.517252 57.5885 1.96063Z" fill="url(#paint0_linear_12_171)"/>
<defs>
<linearGradient id="paint0_linear_12_171" x1="12.0002" y1="-1.19832e-07" x2="66.6669" y2="96" gradientUnits="userSpaceOnUse">
<stop stop-color="#F0F6F9"/>
<stop offset="1" stop-color="#CDDFF2"/>
</linearGradient>
</defs>
</svg>
