<svg width="91" height="100" viewBox="0 0 91 100" fill="none" xmlns="http://www.w3.org/2000/svg">
<path fill-rule="evenodd" clip-rule="evenodd" d="M57.7314 1.96063C50.6132 5.01033 40.3397 5.01031 33.2214 1.96061C27.4379 -0.517239 20.9687 -0.74702 14.9996 1.84943C2.40283 7.32873 -3.24705 23.341 2.23556 37.7855C2.23678 37.7887 2.23672 37.7922 2.23539 37.7954L3.94633 41.5157C9.72985 54.0916 14.0893 67.2747 16.9433 80.8193L19.6583 93.7038C20.5979 97.4078 23.9181 100 27.7227 100C31.8089 100 35.2906 97.0196 35.9393 92.9664L39.7668 69.0518C40.2176 66.2352 42.6371 64.1641 45.4766 64.1641C48.3161 64.1641 50.7355 66.2353 51.1863 69.0518L55.0138 92.9664C55.6625 97.0196 59.1441 100 63.2303 100C67.035 100 70.3552 97.4078 71.2947 93.7038L74.0097 80.8193C76.8638 67.2747 81.2232 54.0916 87.0067 41.5157L88.7176 37.7954C88.7163 37.7922 88.7163 37.7887 88.7175 37.7855C94.2001 23.341 88.5502 7.32873 75.9534 1.84943C69.9843 -0.747047 63.515 -0.517252 57.7314 1.96063Z" fill="url(#paint0_linear_12_176)"/>
<defs>
<linearGradient id="paint0_linear_12_176" x1="12.1432" y1="-1.19832e-07" x2="66.8099" y2="96" gradientUnits="userSpaceOnUse">
<stop stop-color="#F0F6F9"/>
<stop offset="1" stop-color="#CDDFF2"/>
</linearGradient>
</defs>
</svg>
