<svg width="95" height="100" viewBox="0 0 95 100" fill="none" xmlns="http://www.w3.org/2000/svg">
<path d="M34.3373 1.99172C41.7265 5.08981 52.391 5.08983 59.7802 1.99174C65.7839 -0.525461 72.4994 -0.758899 78.6958 1.87878C91.7745 7.4461 97.6392 23.7177 91.9423 38.3936L91.9458 38.3951L88.133 47.7986C87.233 50.0183 85.0769 51.4706 82.6817 51.4706H11.4359C9.04072 51.4706 6.88468 50.0183 5.98466 47.7986L2.17184 38.3951L2.17535 38.3936C-3.52157 23.7177 2.3431 7.4461 15.4219 1.87878C21.6182 -0.758873 28.3336 -0.525445 34.3373 1.99172Z" fill="url(#paint0_linear_12_31)"/>
<path d="M34.3373 1.99172C41.7265 5.08981 52.391 5.08983 59.7802 1.99174C65.7839 -0.525461 72.4994 -0.758899 78.6958 1.87878C91.7745 7.4461 97.6392 23.7177 91.9423 38.3936L91.9458 38.3951L88.133 47.7986C87.233 50.0183 85.0769 51.4706 82.6817 51.4706H11.4359C9.04072 51.4706 6.88468 50.0183 5.98466 47.7986L2.17184 38.3951L2.17535 38.3936C-3.52157 23.7177 2.3431 7.4461 15.4219 1.87878C21.6182 -0.758873 28.3336 -0.525445 34.3373 1.99172Z" fill="url(#paint1_linear_12_31)" fill-opacity="0.1"/>
<path d="M34.3373 1.99172C41.7265 5.08981 52.391 5.08983 59.7802 1.99174C65.7839 -0.525461 72.4994 -0.758899 78.6958 1.87878C91.7745 7.4461 97.6392 23.7177 91.9423 38.3936L91.9458 38.3951L88.133 47.7986C87.233 50.0183 85.0769 51.4706 82.6817 51.4706H11.4359C9.04072 51.4706 6.88468 50.0183 5.98466 47.7986L2.17184 38.3951L2.17535 38.3936C-3.52157 23.7177 2.3431 7.4461 15.4219 1.87878C21.6182 -0.758873 28.3336 -0.525445 34.3373 1.99172Z" fill="url(#paint2_linear_12_31)" fill-opacity="0.05"/>
<path d="M20.5883 55.8823H73.5294L62.4693 88.909C60.2506 95.5343 54.0457 100 47.0588 100C40.072 100 33.867 95.5343 31.6484 88.909L20.5883 55.8823Z" fill="url(#paint3_linear_12_31)"/>
<path d="M5.88232 55.1471C5.88232 53.1166 7.52834 51.4706 9.55879 51.4706H84.5588C86.5892 51.4706 88.2353 53.1166 88.2353 55.1471C88.2353 57.1775 86.5892 58.8235 84.5588 58.8235H9.5588C7.52834 58.8235 5.88232 57.1775 5.88232 55.1471Z" fill="url(#paint4_linear_12_31)"/>
<path d="M27.9412 88.2352C27.9412 86.6109 29.258 85.2941 30.8823 85.2941H63.2353C64.8596 85.2941 66.1765 86.6109 66.1765 88.2352C66.1765 89.8596 64.8596 91.1764 63.2353 91.1764H30.8823C29.258 91.1764 27.9412 89.8596 27.9412 88.2352Z" fill="url(#paint5_linear_12_31)"/>
<path d="M24.2646 77.9412C24.2646 76.3168 25.5815 75 27.2058 75H66.9117C68.5361 75 69.8529 76.3168 69.8529 77.9412C69.8529 79.5655 68.5361 80.8824 66.9117 80.8824H27.2058C25.5815 80.8824 24.2646 79.5655 24.2646 77.9412Z" fill="url(#paint6_linear_12_31)"/>
<path d="M20.5883 67.6471C20.5883 66.0227 21.9051 64.7059 23.5294 64.7059H70.5883C72.2126 64.7059 73.5294 66.0227 73.5294 67.6471C73.5294 69.2715 72.2126 70.5883 70.5883 70.5883H23.5294C21.9051 70.5883 20.5883 69.2715 20.5883 67.6471Z" fill="url(#paint7_linear_12_31)"/>
<defs>
<linearGradient id="paint0_linear_12_31" x1="12.4567" y1="-4.93869e-07" x2="67.3723" y2="98.5441" gradientUnits="userSpaceOnUse">
<stop stop-color="#F0F6F9"/>
<stop offset="1" stop-color="#CDDFF2"/>
</linearGradient>
<linearGradient id="paint1_linear_12_31" x1="46.3235" y1="53.6765" x2="46.3235" y2="49.2647" gradientUnits="userSpaceOnUse">
<stop offset="0.241809" stop-color="#065099"/>
<stop offset="1" stop-color="#DFEBF6" stop-opacity="0.47"/>
</linearGradient>
<linearGradient id="paint2_linear_12_31" x1="47.0588" y1="51.4706" x2="47.0588" y2="45.5882" gradientUnits="userSpaceOnUse">
<stop stop-color="#065099"/>
<stop offset="1" stop-color="#065099" stop-opacity="0"/>
</linearGradient>
<linearGradient id="paint3_linear_12_31" x1="73.5294" y1="88.6363" x2="13.3014" y2="68.7096" gradientUnits="userSpaceOnUse">
<stop stop-color="#BCC1D6"/>
<stop offset="1" stop-color="#E9ECFA"/>
</linearGradient>
<linearGradient id="paint4_linear_12_31" x1="32.4028" y1="51.4706" x2="54.7281" y2="55.1554" gradientUnits="userSpaceOnUse">
<stop stop-color="#F0F3FF"/>
<stop offset="1" stop-color="#E1E5F5"/>
</linearGradient>
<linearGradient id="paint5_linear_12_31" x1="40.2542" y1="85.2941" x2="48.0644" y2="87.3427" gradientUnits="userSpaceOnUse">
<stop stop-color="#F1F4FF"/>
<stop offset="1" stop-color="#D5DAF0"/>
</linearGradient>
<linearGradient id="paint6_linear_12_31" x1="42.0726" y1="75" x2="51.5296" y2="77.7135" gradientUnits="userSpaceOnUse">
<stop stop-color="#F1F4FF"/>
<stop offset="1" stop-color="#D5DAF0"/>
</linearGradient>
<linearGradient id="paint7_linear_12_31" x1="41.9118" y1="64.7059" x2="52.9576" y2="68.2369" gradientUnits="userSpaceOnUse">
<stop stop-color="#F1F4FF"/>
<stop offset="1" stop-color="#D5DAF0"/>
</linearGradient>
</defs>
</svg>
