<svg width="52" height="52" viewBox="0 0 52 52" fill="none" xmlns="http://www.w3.org/2000/svg">
<path d="M49.1205 35.9295L36.8235 30.4268C36.3468 30.2205 35.8261 30.1363 35.3087 30.1818C34.7913 30.2272 34.2933 30.401 33.8599 30.6872C33.8252 30.7092 33.7922 30.7336 33.7609 30.7602L27.3025 36.2654C27.1588 36.3531 26.9957 36.4039 26.8276 36.4135C26.6595 36.423 26.4917 36.391 26.339 36.3201C22.1098 34.2784 17.7321 29.9346 15.6904 25.7549C15.6182 25.6033 15.5847 25.4362 15.5929 25.2685C15.601 25.1008 15.6507 24.9378 15.7373 24.7939L21.2582 18.2288C21.2842 18.1975 21.3077 18.1637 21.3311 18.1298C21.6165 17.697 21.7897 17.2 21.8352 16.6835C21.8807 16.1671 21.7969 15.6475 21.5915 15.1714L16.0784 2.89526C15.8123 2.2735 15.3516 1.75487 14.7656 1.41724C14.1795 1.07961 13.4998 0.941222 12.8284 1.02285C9.55121 1.45493 6.54336 3.06522 4.36667 5.55294C2.18998 8.04066 0.993299 11.2357 1.00015 14.5412C1.00015 34.6456 17.3545 51 37.4589 51C40.7644 51.0068 43.9595 49.8101 46.4472 47.6335C48.9349 45.4568 50.5452 42.4489 50.9773 39.1717C51.0583 38.5034 50.9213 37.8268 50.5868 37.2426C50.2522 36.6584 49.7379 36.1978 49.1205 35.9295ZM48.9174 38.9113C48.5496 41.6867 47.1836 44.2332 45.0747 46.0746C42.9659 47.916 40.2585 48.9263 37.4589 48.9166C18.5056 48.9166 3.08351 33.4946 3.08351 14.5412C3.07381 11.7416 4.08412 9.03423 5.92554 6.92537C7.76696 4.81651 10.3134 3.45051 13.0888 3.08276C13.1305 3.08018 13.1722 3.08018 13.2138 3.08276C13.4193 3.08452 13.6197 3.14702 13.7898 3.2624C13.9599 3.37779 14.092 3.5409 14.1696 3.73121L19.667 16.0074C19.7312 16.1574 19.7592 16.3204 19.7488 16.4833C19.7384 16.6461 19.6898 16.8042 19.6071 16.9449L14.0888 23.5075C14.0628 23.5413 14.0368 23.5726 14.0133 23.609C13.7193 24.0586 13.5462 24.5764 13.5106 25.1124C13.475 25.6484 13.5782 26.1845 13.8102 26.669C16.0732 31.3018 20.74 35.9347 25.4249 38.1977C25.9127 38.4282 26.4519 38.5285 26.9899 38.4888C27.528 38.4491 28.0466 38.2708 28.4953 37.9712L28.5916 37.8983L35.0578 32.3982C35.1962 32.3137 35.3526 32.2633 35.5142 32.251C35.6758 32.2388 35.8381 32.2651 35.9875 32.3279L48.2819 37.8384C48.4894 37.9247 48.6634 38.0759 48.7779 38.2692C48.8924 38.4626 48.9414 38.6878 48.9174 38.9113Z" stroke="#44C6E9" stroke-width="2"/>
</svg>
